<svg width="32" height="32" viewBox="0 0 32 32" xmlns="http://www.w3.org/2000/svg"><title>4B3A4D98-075D-4682-ACE1-B5A5707482FE</title><g fill="none" fill-rule="evenodd"><path d="M32 16c0-8.836-7.164-16-16-16C7.163 0 0 7.164 0 16c0 8.837 7.163 16 16 16 8.836 0 16-7.163 16-16z" fill="#537BBC"/><path d="M12.146 13.297H13.8v-1.609c0-.708.018-1.803.534-2.48.542-.717 1.287-1.205 2.568-1.205 2.088 0 2.968.298 2.968.298l-.414 2.452s-.69-.2-1.333-.2c-.644 0-1.22.23-1.22.875v1.869h2.638l-.183 2.394h-2.456v8.32H13.8v-8.32h-1.654v-2.394z" fill="#FFF"/></g></svg>