<?xml version="1.0" encoding="UTF-8"?>
<svg width="24px" height="24px" viewBox="0 0 24 24" version="1.1" xmlns="http://www.w3.org/2000/svg" xmlns:xlink="http://www.w3.org/1999/xlink">
    <!-- Generator: sketchtool 40.3 (33839) - http://www.bohemiancoding.com/sketch -->
    <title>5FF48D83-83D5-4AAE-AD83-C2AAF818A004</title>
    <desc>Created with sketchtool.</desc>
    <defs></defs>
    <g id="Symbols" stroke="none" stroke-width="1" fill="none" fill-rule="evenodd">
        <g id="icon_search" fill="#333333">
            <path d="M19.4594595,9.72972973 C19.4594595,11.9772973 18.6901622,14.0412973 17.4090811,15.6888649 L23.6432432,21.9236757 C23.8806486,22.1610811 24,22.4717838 24,22.7837838 C24,23.0951351 23.8806486,23.4058378 23.6432432,23.6432432 C23.4064865,23.8806486 23.0951351,24 22.7837838,24 C22.4724324,24 22.1610811,23.8806486 21.9236757,23.6432432 L15.6895135,17.4090811 C14.0412973,18.6895135 11.9779459,19.4594595 9.72972973,19.4594595 C4.35632432,19.4594595 0,15.1031351 0,9.72972973 C0,4.35632432 4.35632432,0 9.72972973,0 C15.1031351,0 19.4594595,4.35632432 19.4594595,9.72972973 M9.72972973,17.027027 C13.7539459,17.027027 17.027027,13.7539459 17.027027,9.72972973 C17.027027,5.70551351 13.7539459,2.43243243 9.72972973,2.43243243 C5.70551351,2.43243243 2.43243243,5.70551351 2.43243243,9.72972973 C2.43243243,13.7539459 5.70551351,17.027027 9.72972973,17.027027" id="search"></path>
        </g>
    </g>
</svg>