<?xml version="1.0" encoding="UTF-8"?>
<svg width="15px" height="20px" viewBox="0 0 15 20" version="1.1" xmlns="http://www.w3.org/2000/svg" xmlns:xlink="http://www.w3.org/1999/xlink">
    <!-- Generator: sketchtool 40.3 (33839) - http://www.bohemiancoding.com/sketch -->
    <title>5D042174-E615-4400-964B-A9B0957F2B43</title>
    <desc>Created with sketchtool.</desc>
    <defs></defs>
    <g id="Symbols" stroke="none" stroke-width="1" fill="none" fill-rule="evenodd">
        <g id="icon_kyoten" fill="#AAAAAA">
            <g id="icon">
                <polygon id="Fill-1" points="3.05149396 11.075092 4.67895741 11.075092 4.67895741 9.47145877 3.05149396 9.47145877"></polygon>
                <polygon id="Fill-2" points="3.05149396 4.66055908 4.67895741 4.66055908 4.67895741 3.05692585 3.05149396 3.05692585"></polygon>
                <polygon id="Fill-3" points="3.05149396 7.86782554 4.67895741 7.86782554 4.67895741 6.26419231 3.05149396 6.26419231"></polygon>
                <polygon id="Fill-4" points="6.30642085 4.66055908 7.9338843 4.66055908 7.9338843 3.05692585 6.30642085 3.05692585"></polygon>
                <polygon id="Fill-5" points="6.30642085 7.86782554 7.9338843 7.86782554 7.9338843 6.26419231 6.30642085 6.26419231"></polygon>
                <g id="Group-2">
                    <path d="M10.3750795,11.3900146 C9.58993007,11.3900146 8.95104895,12.0193906 8.95104895,12.7931937 C8.95104895,13.5667964 9.58993007,14.1963728 10.3750795,14.1963728 C11.1602289,14.1963728 11.79911,13.5667964 11.79911,12.7931937 C11.79911,12.0193906 11.1602289,11.3900146 10.3750795,11.3900146" id="Fill-6"></path>
                    <path d="M12.6845518,14.5311722 L10.3750795,17.3921541 L8.06677686,14.5325754 C7.65238398,14.0163558 7.43343929,13.3960003 7.43343929,12.7382601 C7.43343929,11.1400893 8.75315957,9.83969305 10.3750795,9.83969305 C11.9969994,9.83969305 13.3167196,11.1400893 13.3167196,12.7382601 C13.3167196,13.3957999 13.097775,14.0163558 12.6845518,14.5311722 L12.6845518,14.5311722 Z M1.22059758,16.6376948 L1.22059758,1.20272492 L9.76478067,1.20272492 L9.76478067,8.68121839 C7.75806739,8.97307963 6.2128417,10.6810493 6.2128417,12.7382601 C6.2128417,13.6694699 6.52297521,14.5478099 7.11043865,15.2797682 L8.20643357,16.6376948 L1.22059758,16.6376948 Z M10.9853783,8.68121839 L10.9853783,0 L0,0 L0,17.8404197 L9.17731723,17.8404197 L10.3750795,19.3242816 L13.6409409,15.278365 C14.2273872,14.5478099 14.5373172,13.6692694 14.5373172,12.7382601 C14.5373172,10.6810493 12.9920915,8.97307963 10.9853783,8.68121839 L10.9853783,8.68121839 Z" id="Fill-8"></path>
                </g>
            </g>
        </g>
    </g>
</svg>