<?xml version="1.0" encoding="UTF-8"?>
<svg width="500px" height="388px" viewBox="0 0 500 388" version="1.1" xmlns="http://www.w3.org/2000/svg" xmlns:xlink="http://www.w3.org/1999/xlink">
    <!-- Generator: Sketch 40.3 (33839) - http://www.bohemiancoding.com/sketch -->
    <title>map</title>
    <desc>Created with Sketch.</desc>
    <defs></defs>
    <g id="01" stroke="none" stroke-width="1" fill="none" fill-rule="evenodd">
        <g id="求人_TOP" transform="translate(-200.000000, -2124.000000)">
            <g id="求人検索" transform="translate(110.000000, 2016.000000)">
                <g id="map" transform="translate(90.000000, 108.000000)">
                    <path d="M73.4128627,290.118241 C75.6008561,290.118241 77.3916705,291.908354 77.3916705,294.096347 L77.3916705,370.314024 C77.3916705,372.502017 79.1817831,374.29213 81.3697765,374.29213 L140.969089,374.29213 C143.157082,374.29213 144.947897,372.502017 144.947897,370.314024 L144.947897,258.953019 C144.947897,256.765026 143.157082,254.974913 140.969089,254.974913 L54.5272096,254.974913 C52.3392162,254.974913 50.5491035,256.765026 50.5491035,258.953019 L50.5491035,286.140135 C50.5491035,288.328129 52.3392162,290.118241 54.5272096,290.118241 L73.4128627,290.118241 Z M36.7208168,341.026631 C36.7208168,338.130592 34.3517771,335.76085 31.4550367,335.76085 L20.1270131,335.76085 C17.2309744,335.76085 14.8612329,338.130592 14.8612329,341.026631 L14.8612329,342.569734 C14.8612329,345.465773 12.4914915,347.835515 9.59545279,347.835515 L5.26578015,347.835515 C2.36974141,347.835515 0,350.205256 0,353.101295 L0,382.155714 C0,385.051753 2.36974141,387.421494 5.26578015,387.421494 L16.5938037,387.421494 C19.4898425,387.421494 21.8595839,385.051753 21.8595839,382.155714 L21.8595839,380.61261 C21.8595839,377.716571 24.2293253,375.34683 27.125364,375.34683 L31.4550367,375.34683 C34.3517771,375.34683 36.7208168,372.977089 36.7208168,370.08105 L36.7208168,341.026631 Z M468.11761,125.758394 C468.11761,123.570401 466.327497,121.780288 464.139504,121.780288 L431.374338,121.780288 C429.186344,121.780288 427.39553,123.570401 427.39553,125.758394 L427.39553,127.977966 C427.39553,130.165959 425.605417,131.956773 423.417424,131.956773 L405.465773,131.956773 C403.27778,131.956773 401.487667,130.165959 401.487667,127.977966 L401.487667,125.758394 C401.487667,123.570401 399.696853,121.780288 397.508859,121.780288 L380.475071,121.780288 C378.287078,121.780288 376.496263,123.570401 376.496263,125.758394 L376.496263,203.788639 C376.496263,205.976632 378.287078,207.766745 380.475071,207.766745 L393.835304,207.766745 C396.023297,207.766745 397.81341,209.557559 397.81341,211.745553 L397.81341,240.802077 C397.81341,242.990071 399.604224,244.780183 401.792218,244.780183 L464.139504,244.780183 C466.327497,244.780183 468.11761,242.990071 468.11761,240.802077 L468.11761,125.758394 Z M468.11761,251.475387 C468.11761,249.287393 466.327497,247.497281 464.139504,247.497281 L377.602189,247.497281 C375.414196,247.497281 373.624083,249.287393 373.624083,251.475387 L373.624083,277.814814 C373.624083,280.002807 375.414196,281.793621 377.602189,281.793621 L388.282516,281.793621 C390.47051,281.793621 392.260622,283.583734 392.260622,285.771727 L392.260622,322.216063 C392.260622,324.404056 394.050735,326.194169 396.238728,326.194169 L419.722817,326.194169 C421.91081,326.194169 423.700923,324.404056 423.700923,322.216063 L423.700923,307.97586 C423.700923,305.787867 425.491035,303.997754 427.679029,303.997754 L434.527911,303.997754 C436.715905,303.997754 438.506719,305.787867 438.506719,307.97586 L438.506719,328.688818 C438.506719,330.876811 440.296832,332.667626 442.484825,332.667626 L464.139504,332.667626 C466.327497,332.667626 468.11761,330.876811 468.11761,328.688818 L468.11761,251.475387 Z M248.753377,258.953019 C248.753377,256.765026 246.963264,254.974913 244.775271,254.974913 L221.640644,254.974913 C219.452651,254.974913 217.662538,256.765026 217.662538,258.953019 L217.662538,291.695028 C217.662538,293.883022 219.452651,295.673134 221.640644,295.673134 L241.846953,295.673134 C244.034946,295.673134 245.825059,297.463247 245.825059,299.65124 L245.825059,350.379285 C245.825059,352.56798 247.615171,354.358093 249.803165,354.358093 L284.60054,354.358093 C286.788534,354.358093 288.578646,352.56798 288.578646,350.379285 L288.578646,272.855689 C288.578646,270.667696 286.788534,268.876882 284.60054,268.876882 L252.732185,268.876882 C250.54349,268.876882 248.753377,267.086769 248.753377,264.898775 L248.753377,258.953019 Z M152.988316,258.953019 C152.988316,256.765026 154.778429,254.974913 156.966422,254.974913 L210.876811,254.974913 C213.065506,254.974913 214.855619,256.765026 214.855619,258.953019 L214.855619,291.695028 C214.855619,293.883022 213.065506,295.673134 210.876811,295.673134 L156.966422,295.673134 C154.778429,295.673134 152.988316,293.883022 152.988316,291.695028 L152.988316,258.953019 Z M162.173748,312.735693 C159.985755,312.735693 158.194941,314.525806 158.194941,316.7138 L158.194941,350.379987 C158.194941,352.56798 159.985755,354.358093 162.173748,354.358093 L177.025859,354.358093 C179.213852,354.358093 181.003965,352.56798 181.003965,350.379987 L181.003965,348.433388 C181.003965,346.245395 182.794077,344.455282 184.982773,344.455282 L205.445914,344.455282 C207.633908,344.455282 209.42402,346.245395 209.42402,348.433388 L209.42402,350.379987 C209.42402,352.56798 211.214133,354.358093 213.402828,354.358093 L228.254938,354.358093 C230.442932,354.358093 232.233044,352.56798 232.233044,350.379987 L232.233044,316.7138 C232.233044,314.525806 230.442932,312.735693 228.254938,312.735693 L162.173748,312.735693 Z M337.534122,284.60054 C335.345426,284.60054 333.555314,282.809726 333.555314,280.621733 L333.555314,272.855689 C333.555314,270.667696 331.765201,268.876882 329.577208,268.876882 L294.886495,268.876882 C292.698502,268.876882 290.908389,270.667696 290.908389,272.855689 L290.908389,313.092172 C290.908389,315.280166 292.698502,317.070278 294.886495,317.070278 L295.703309,317.070278 C297.891302,317.070278 299.681415,318.860391 299.681415,321.048384 L299.681415,327.897968 C299.681415,330.085962 301.472229,331.876776 303.660222,331.876776 L340.128417,331.876776 C342.31641,331.876776 345.719098,331.098558 347.689555,330.147714 L357.181152,325.568226 C359.15231,324.617382 362.554998,323.839865 364.742991,323.839865 L366.962563,323.839865 C369.150556,323.839865 370.940669,325.629978 370.940669,327.817971 L370.940669,327.897968 C370.940669,330.085962 372.731483,331.876776 374.919477,331.876776 L386.879057,331.876776 C389.06705,331.876776 390.857163,330.085962 390.857163,327.897968 L390.857163,288.578646 C390.857163,286.390653 389.06705,284.60054 386.879057,284.60054 L337.534122,284.60054 Z M332.384127,266.069962 C334.57212,266.069962 336.362233,267.860777 336.362233,270.04877 L336.362233,277.814814 C336.362233,280.002807 338.152346,281.793621 340.341041,281.793621 L366.838357,281.793621 C369.02635,281.793621 370.817164,280.002807 370.817164,277.814814 L370.817164,248.668468 C370.817164,246.480474 372.607277,244.690362 374.79527,244.690362 L391.028385,244.690362 C393.216378,244.690362 395.006491,242.899547 395.006491,240.711554 L395.006491,214.552472 C395.006491,212.364478 393.216378,210.573664 391.028385,210.573664 L380.475071,210.573664 C378.287078,210.573664 374.822638,211.20873 372.776394,211.984141 L288.718291,243.848286 C286.672047,244.623697 284.998421,243.467948 284.998421,241.279955 L284.998421,230.440335 C284.998421,228.252342 283.208308,226.462229 281.019613,226.462229 L267.690256,226.462229 C265.502263,226.462229 263.71215,228.252342 263.71215,230.440335 L263.71215,246.540121 C263.71215,248.728115 262.030806,251.135048 259.976843,251.888004 L255.295604,253.605137 C253.240939,254.358093 251.560296,256.765026 251.560296,258.953019 L251.560296,262.091856 C251.560296,264.27985 253.350409,266.069962 255.539104,266.069962 L285.526122,266.069962 L293.483036,266.069962 L332.384127,266.069962 Z M468.640399,35.7376934 C466.452405,35.7376934 463.44409,34.4254588 461.955721,32.8220062 L434.205817,2.9163889 C432.717449,1.31223466 429.709835,0 427.521841,0 L399.528438,0 C397.340444,0 395.550332,1.79011263 395.550332,3.97810603 L395.550332,52.4599137 C395.550332,54.6479071 394.32862,57.7467457 392.835339,59.3466896 L379.211256,73.9440721 C377.717975,75.544016 376.496263,78.6428546 376.496263,80.830848 L376.496263,109.47686 C376.496263,111.664854 378.287078,113.454966 380.475071,113.454966 L402.129048,113.454966 C404.317042,113.454966 406.107856,111.664854 406.107856,109.47686 L406.107856,99.8898284 C406.107856,97.701835 407.897968,95.9110207 410.085962,95.9110207 L419.899653,95.9110207 C422.087646,95.9110207 425.455949,96.756605 427.384302,97.790253 L440.863829,105.013859 C442.792183,106.046805 445.948563,106.046805 447.876917,105.013859 L461.356444,97.790253 C463.284797,96.756605 466.6531,95.9110207 468.841093,95.9110207 L496.021894,95.9110207 C498.209887,95.9110207 500,94.120908 500,91.9329146 L500,39.7165012 C500,37.5285078 498.209887,35.7376934 496.021894,35.7376934 L468.640399,35.7376934 Z" fill="#BBBBBB"></path>
                    <path d="M15.0259467,361.730715 L16.3506311,361.730715 L16.3506311,359.553296 L15.0259467,359.553296 L15.0259467,361.730715 Z M12.197756,361.730715 L13.5329593,361.730715 L13.5329593,359.553296 L12.197756,359.553296 L12.197756,361.730715 Z M15.0259467,362.999299 L15.0259467,366.613604 L13.5329593,366.613604 L13.5329593,362.999299 L12.197756,362.999299 L12.197756,363.560309 L10.7945302,363.560309 L10.7945302,358.307153 L13.5329593,358.307153 L13.5329593,356.331697 L15.1051893,356.410238 C15.2173913,356.421459 15.3071529,356.466339 15.3071529,356.545582 C15.3071529,356.657784 15.1837307,356.713885 15.0259467,356.781206 L15.0259467,358.307153 L17.7321178,358.307153 L17.7321178,363.481767 L16.3506311,363.481767 L16.3506311,362.999299 L15.0259467,362.999299 L15.0259467,362.999299 Z M9.1115007,356.253156 C9.7173913,356.51122 10.5483871,357.04979 11.0189341,357.465638 C10.6942496,357.791024 10.4354839,358.105189 10.1991585,358.475456 C9.76157083,358.12763 8.98737728,357.611501 8.33660589,357.307854 L9.1115007,356.253156 L9.1115007,356.253156 Z M7.30434783,365.80575 C8.21248247,364.638149 8.98737728,363.156381 9.39130435,361.865358 C9.7286115,362.292426 10.4242637,362.797335 10.4691445,362.830295 C10.2671809,363.392006 9.93057504,364.256662 8.77419355,366.299439 C8.79663394,366.35554 8.84151473,366.456522 8.84151473,366.546283 C8.84151473,366.624825 8.78541374,366.669705 8.72931276,366.669705 C8.67321178,366.669705 8.58345021,366.613604 8.53856942,366.579944 L7.30434783,365.80575 L7.30434783,365.80575 Z M7.89831697,358.890603 C8.34782609,359.092567 9.29102384,359.598177 9.89691445,360.024544 C9.55960729,360.417251 9.44740533,360.585554 9.09957924,361.135344 C8.72931276,360.889201 7.94389902,360.38359 7.2026648,360.047686 L7.89831697,358.890603 L7.89831697,358.890603 Z" id="Fill-13" fill="#FFFFFF"></path>
                    <path d="M27.7475456,365.536466 C28.1065919,365.536466 28.2412342,365.401122 28.2748948,364.70547 L26.4677419,364.70547 L26.4677419,365.120617 C26.4677419,365.480365 26.5343619,365.536466 26.92777,365.536466 L27.7475456,365.536466 L27.7475456,365.536466 Z M26.4677419,363.819074 L27.6353436,363.819074 L27.6353436,363.133941 L26.4677419,363.133941 L26.4677419,363.819074 Z M26.4677419,362.359748 L27.6353436,362.359748 L27.6353436,361.708275 L26.4677419,361.708275 L26.4677419,362.359748 Z M26.4677419,359.485975 L27.4214586,359.485975 L27.4214586,358.856942 L26.4677419,358.856942 L26.4677419,359.485975 Z M26.4677419,358.09467 L27.4214586,358.09467 L27.4214586,357.476858 L26.4677419,357.476858 L26.4677419,358.09467 Z M24.4810659,359.485975 L25.3681627,359.485975 L25.3681627,358.856942 L24.4810659,358.856942 L24.4810659,359.485975 Z M24.4810659,358.09467 L25.3681627,358.09467 L25.3681627,357.476858 L24.4810659,357.476858 L24.4810659,358.09467 Z M24.2671809,363.819074 L25.3674614,363.819074 L25.3674614,363.133941 L24.2671809,363.133941 L24.2671809,363.819074 Z M24.2671809,362.359748 L25.3674614,362.359748 L25.3674614,361.708275 L24.2671809,361.708275 L24.2671809,362.359748 Z M26.4677419,360.8331 L28.7685835,360.8331 L28.7685835,364.70547 L28.4207574,364.70547 C28.5217391,364.772791 28.8920056,365.008415 29.4537167,365.098177 C29.3520337,365.816269 29.0827489,366.535063 28.2854137,366.535063 L26.5238429,366.535063 C25.9067321,366.535063 25.3674614,366.501403 25.3674614,365.580645 L25.3674614,364.70547 L24.2671809,364.70547 L24.2671809,365.570126 L23.1339411,365.570126 L23.1339411,360.8331 L25.3674614,360.8331 L25.3674614,360.30575 L23.3807854,360.30575 L23.3807854,356.589762 L28.5217391,356.589762 L28.5217391,360.30575 L26.4677419,360.30575 L26.4677419,360.8331 L26.4677419,360.8331 Z M22.730014,362.336606 C22.740533,362.842216 22.8527349,363.897616 22.9880785,364.492286 C22.7524544,364.525245 22.3927069,364.593268 22.0112202,364.784011 C21.9102384,364.1669 21.8316971,363.212482 21.8316971,362.52805 L22.730014,362.336606 L22.730014,362.336606 Z M20.1367461,362.718093 C20.2152875,362.730014 20.3499299,362.752454 20.3499299,362.864656 C20.3499299,362.999299 20.1928471,363.0554 20.0806452,363.08906 C20.0245442,363.841515 19.9123422,364.683029 19.6984572,365.401122 C19.21669,365.255259 19.1381487,365.244039 18.6213184,365.176718 C18.9354839,364.312763 19.058906,363.459327 19.1044881,362.584151 L20.1367461,362.718093 L20.1367461,362.718093 Z M21.5736325,366.624825 L20.3955119,366.624825 L20.3955119,361.854137 C19.7103787,361.966339 19.4628331,362 19.171108,362.044881 C19.1269285,362.168303 19.0813464,362.292426 18.9691445,362.292426 C18.8345021,362.292426 18.8232819,362.112202 18.812763,362.044881 L18.700561,360.978962 C18.9467041,360.967742 19.0708275,360.956522 19.3064516,360.93338 C19.5645161,360.631136 19.9460028,360.137447 20.1255259,359.901122 C19.7776999,359.497195 19.21669,358.992286 18.6213184,358.565217 L19.2945302,357.633941 C19.5084151,357.791024 19.5525947,357.835905 19.6430575,357.903226 C19.8225806,357.667602 20.3057504,356.927069 20.6640954,356.163394 L21.7643759,356.679523 C21.8092567,356.701964 21.9214586,356.758065 21.9214586,356.847826 C21.9214586,356.937588 21.8429173,356.993689 21.7531557,356.993689 C21.6970547,356.993689 21.6297335,356.971248 21.5399719,356.937588 C21.0238429,357.745442 20.7657784,358.13885 20.4284712,358.588359 C20.4621318,358.62202 20.529453,358.678121 20.8218794,358.969846 C20.9789621,358.767882 21.5175316,358.015428 21.8204769,357.465638 L22.842216,357.992987 C22.9095372,358.026648 22.9985975,358.071529 22.9985975,358.16129 C22.9985975,358.307153 22.8085554,358.307153 22.5841515,358.296634 C21.9663394,359.261571 20.8892006,360.575035 20.7201964,360.776999 C20.8772791,360.765778 21.157784,360.731417 21.7531557,360.631136 C21.6633941,360.293829 21.5736325,360.091865 21.5063114,359.923562 L22.4488079,359.586957 C22.6065919,360.002104 22.898317,360.877279 23.0441795,361.730715 C22.842216,361.764376 22.2468443,361.98878 22.0785414,362.078541 C22.0448808,361.798036 22.0224404,361.708275 21.9887798,361.573633 C21.8541374,361.607293 21.6521739,361.640954 21.5736325,361.652174 L21.5736325,366.624825 L21.5736325,366.624825 Z" id="Fill-14" fill="#FFFFFF"></path>
                    <path d="M431.951613,62.0343619 C432.007714,62.0792426 432.030154,62.1241234 432.030154,62.1690042 C432.030154,62.2251052 431.996494,62.3036466 431.884292,62.3036466 C431.850631,62.3036466 431.828191,62.3036466 431.682328,62.269986 C431.480365,62.4495091 430.626928,63.2580645 430.447405,63.4151473 C429.639551,64.1220196 428.786115,64.7398317 428.596073,64.8632539 L428.596073,67.6697055 C428.596073,68.1521739 428.831697,68.1633941 429.201964,68.1633941 L429.976157,68.1633941 C430.301543,68.1633941 430.71669,68.1633941 430.840813,66.7152875 C431.322581,67.0967742 431.514025,67.2426367 432.153576,67.4221599 C431.873773,69.1395512 431.143759,69.4656381 430.391304,69.4656381 L428.606592,69.4656381 C427.730715,69.4656381 427.203366,69.1395512 427.203366,68.1072931 L427.203366,59.4754558 L428.662693,59.5645161 C428.763675,59.5764376 428.898317,59.598878 428.898317,59.7110799 C428.898317,59.8008415 428.842216,59.8232819 428.596073,59.9354839 L428.596073,63.1795231 C428.808555,63.0224404 430.043478,62.0119215 430.728612,61.0469846 L431.951613,62.0343619 L431.951613,62.0343619 Z M421.434081,67.0070126 C422.882188,66.6143058 423.072931,66.5582048 424.63324,66.0525947 L424.63324,63.2468443 L421.624825,63.2468443 L421.624825,61.8548387 L424.63324,61.8548387 L424.63324,59.4635344 L426.148668,59.5645161 C426.227209,59.5645161 426.361851,59.598878 426.361851,59.6998597 C426.361851,59.8008415 426.27209,59.8345021 426.058906,59.9130435 L426.058906,69.6115007 L424.63324,69.6115007 L424.63324,67.4109397 C424.330295,67.5231417 422.377279,68.2194951 422.208275,68.2643759 C422.141655,68.5 422.107994,68.6234222 421.995792,68.6234222 C421.928471,68.6234222 421.87237,68.5448808 421.84993,68.4551192 L421.434081,67.0070126 L421.434081,67.0070126 Z" id="Fill-15" fill="#FFFFFF"></path>
                    <path d="M441.130435,63.3029453 L440.063815,63.3029453 C440.053296,63.8863955 440.053296,63.9537167 440.041374,64.414446 L441.130435,64.414446 L441.130435,63.3029453 L441.130435,63.3029453 Z M439.962833,65.5140252 C439.884292,66.4235624 439.873072,66.5245442 439.851332,66.7152875 L441.051192,66.7152875 C441.074334,66.3786816 441.107994,65.9067321 441.119215,65.5140252 L439.962833,65.5140252 L439.962833,65.5140252 Z M437.751052,63.3029453 L437.751052,63.9200561 C437.751052,63.9873773 437.729313,64.3352034 437.729313,64.414446 L438.806452,64.414446 C438.840112,64.0210379 438.852034,63.7180926 438.852034,63.3029453 L437.751052,63.3029453 L437.751052,63.3029453 Z M437.673212,65.5140252 C437.628331,65.9852735 437.605189,66.243338 437.538569,66.7152875 L438.582048,66.7152875 C438.65007,66.2664797 438.683731,65.9964937 438.72791,65.5140252 L437.673212,65.5140252 L437.673212,65.5140252 Z M442.387798,65.5140252 C442.354137,66.3443198 442.354137,66.4347826 442.342216,66.7152875 L443.037868,66.7152875 L443.037868,67.8485273 L442.218794,67.8485273 C442.117812,68.4663394 441.927069,69.64446 439.917952,69.7791024 C439.80575,69.3190743 439.648668,69.0385694 439.30014,68.6234222 C440.670407,68.6683029 440.816269,68.3765778 440.928471,67.8485273 L437.325386,67.8485273 C437.246844,68.1851332 437.179523,68.3765778 437.123422,68.556101 C436.741234,68.4326788 436.572931,68.4102384 435.809958,68.2868163 C436.180224,67.2538569 436.326087,66.3786816 436.427069,65.5140252 L435.540673,65.5140252 L435.540673,64.414446 L436.50561,64.414446 C436.517532,64.088359 436.517532,63.9312763 436.517532,63.6507714 L436.517532,62.1241234 C436.415849,62.2363254 436.090463,62.5953717 436.023142,62.6746143 C435.607994,62.3709677 435.406031,62.2587658 434.87798,62.0343619 C435.843619,61.0806452 436.449509,60.0925666 436.809257,59.2054698 L437.976157,59.5764376 C438.054698,59.598878 438.189341,59.6661992 438.189341,59.7559607 C438.189341,59.8681627 438.032258,59.9018233 437.897616,59.9354839 C437.852735,60.0252454 437.774194,60.1486676 437.751052,60.1935484 L443.07223,60.1935484 L443.07223,61.3274895 L437.111501,61.3274895 C436.931978,61.6079944 436.741234,61.8548387 436.517532,62.1129032 L442.410238,62.1129032 L442.410238,64.414446 L443.139551,64.414446 L443.139551,65.5140252 L442.387798,65.5140252 L442.387798,65.5140252 Z M434.552595,61.6865358 C434.182328,61.2713885 433.519635,60.7545582 432.981066,60.4628331 L433.665498,59.4081346 C434.518934,59.9803647 434.575035,60.0252454 435.282609,60.6647966 C435.080645,60.9460028 434.743338,61.3948107 434.552595,61.6865358 L434.552595,61.6865358 Z M434.451613,68.4326788 C434.373072,68.5785414 434.025245,69.2180926 433.969144,69.3527349 C434.002805,69.4312763 434.047686,69.5210379 434.047686,69.5771388 C434.047686,69.64446 433.991585,69.7461431 433.901823,69.7461431 C433.856942,69.7461431 433.7777,69.7237027 433.687938,69.6676017 L432.599579,68.9712482 C432.902525,68.5897616 433.81136,67.197756 434.406732,65.6935484 C434.608696,65.8737728 434.956522,66.1535764 435.406031,66.4347826 C435.158485,67.0743338 434.664797,68.0175316 434.451613,68.4326788 L434.451613,68.4326788 Z M434.26087,64.9081346 C434.092567,64.7622721 433.250351,63.9985975 432.498597,63.5834502 L433.250351,62.6065919 C433.969144,63.056101 434.451613,63.4151473 435.024544,63.9200561 C434.732118,64.2117812 434.541374,64.4474053 434.26087,64.9081346 L434.26087,64.9081346 Z" id="Fill-16" fill="#FFFFFF"></path>
                    <path d="M449.252454,66.6816269 L452.26087,66.6816269 L452.26087,66.0645161 L449.252454,66.0645161 L449.252454,66.6816269 Z M449.252454,65.2447405 L452.26087,65.2447405 L452.26087,64.6388499 L449.252454,64.6388499 L449.252454,65.2447405 Z M449.252454,63.8302945 L452.26087,63.8302945 L452.26087,63.2356241 L449.252454,63.2356241 L449.252454,63.8302945 Z M453.641655,62.3597475 L453.641655,67.9270687 L452.26087,67.9270687 L452.26087,67.6241234 L449.252454,67.6241234 L449.252454,67.9943899 L447.88359,67.9943899 L447.88359,62.3597475 L449.398317,62.3597475 C449.476858,62.1690042 449.600281,61.8660589 449.668303,61.7089762 L447.086255,61.7089762 L447.086255,60.5869565 L448.669004,60.5869565 C448.443899,60.2496494 448.275596,60.0476858 448.039972,59.7671809 L449.162693,59.2279102 C449.656381,59.7896213 449.847125,60.0701262 450.026648,60.4067321 C449.814165,60.4516129 449.668303,60.5077139 449.454418,60.5869565 L451.20547,60.5869565 C451.485975,60.0813464 451.621318,59.7559607 451.823282,59.21669 L453.079944,59.5876578 C453.180926,59.6213184 453.293128,59.654979 453.293128,59.7784011 C453.293128,59.9130435 453.147265,59.9354839 453.024544,59.9467041 C452.968443,60.0476858 452.720898,60.4964937 452.676017,60.5869565 L454.314867,60.5869565 L454.314867,61.7089762 L451.149369,61.7089762 C450.992286,62.0343619 450.924965,62.1914446 450.846424,62.3597475 L453.641655,62.3597475 L453.641655,62.3597475 Z M444.987377,59.5203366 C445.23352,59.6998597 446.019635,60.2945302 446.77209,61.1928471 C446.345021,61.5967742 445.963534,62.0792426 445.884993,62.1690042 C445.279102,61.4621318 444.729313,60.911641 444.100281,60.4291725 L444.987377,59.5203366 L444.987377,59.5203366 Z M446.79453,63.740533 L446.79453,67.1865358 C446.816971,67.4333801 446.850631,67.7145863 447.288219,67.9614306 C447.871669,68.2980365 448.489481,68.3765778 449.814165,68.3765778 C452.28331,68.3765778 453.776297,68.2082749 454.550491,68.1297335 C454.292426,68.5336606 454.169004,68.9263675 454.157784,69.5105189 L449.162693,69.5105189 C447.523843,69.5105189 446.884292,69.2629734 446.232819,68.5224404 C446.064516,68.6907433 445.12202,69.4095372 444.987377,69.4873773 C444.997896,69.5666199 445.009818,69.6332398 445.009818,69.6781206 C445.009818,69.7791024 444.931276,69.8471248 444.863955,69.8471248 C444.785414,69.8471248 444.729313,69.7573633 444.695652,69.6893408 L443.976858,68.4214586 C444.358345,68.2419355 444.762272,68.0175316 445.447405,67.5568022 L445.447405,64.986676 L444.0554,64.986676 L444.0554,63.740533 L446.79453,63.740533 L446.79453,63.740533 Z" id="Fill-17" fill="#FFFFFF"></path>
                    <path d="M417.105189,184.043478 L419.035764,184.043478 L419.035764,183.426367 L417.105189,183.426367 L417.105189,184.043478 Z M417.105189,182.561711 L419.035764,182.561711 L419.035764,181.95582 L417.105189,181.95582 L417.105189,182.561711 Z M413.894811,184.043478 L415.780505,184.043478 L415.780505,183.426367 L413.894811,183.426367 L413.894811,184.043478 Z M413.894811,182.561711 L415.780505,182.561711 L415.780505,181.95582 L413.894811,181.95582 L413.894811,182.561711 Z M417.105189,188.421459 L415.780505,188.421459 L415.780505,185.715989 C415.533661,185.996494 414.130435,187.556802 412.323983,188.376578 C411.953015,187.90533 411.751052,187.691445 411.156381,187.366059 C413.165498,186.726508 414.41094,185.547686 414.848527,185.110098 L412.514025,185.110098 L412.514025,180.945302 L415.780505,180.945302 L415.780505,180.361851 L411.347125,180.361851 L411.347125,179.228612 L415.780505,179.228612 L415.780505,178.173212 L417.217391,178.251753 C417.284712,178.251753 417.464236,178.274194 417.464236,178.397616 C417.464236,178.543478 417.284712,178.588359 417.105189,178.62202 L417.105189,179.228612 L421.550491,179.228612 L421.550491,180.361851 L417.105189,180.361851 L417.105189,180.945302 L420.41655,180.945302 L420.41655,185.110098 L418.115007,185.110098 C419.226508,186.075035 420.40533,186.748948 421.684432,187.231417 C420.910238,187.893408 420.798036,188.072931 420.674614,188.320477 C420.124825,188.072931 418.698457,187.343619 417.105189,185.704769 L417.105189,188.421459 L417.105189,188.421459 Z" id="Fill-18" fill="#FFFFFF"></path>
                    <path d="M432.8331,180.788219 C432.889201,180.8331 432.911641,180.878682 432.911641,180.923562 C432.911641,180.979663 432.87798,181.057504 432.765778,181.057504 C432.732118,181.057504 432.709677,181.057504 432.563815,181.024544 C432.361851,181.203366 431.508415,182.011921 431.328892,182.169004 C430.521038,182.876578 429.667602,183.493689 429.47756,183.617111 L429.47756,186.423562 C429.47756,186.906031 429.713184,186.917251 430.08345,186.917251 L430.857644,186.917251 C431.183029,186.917251 431.598177,186.917251 431.7223,185.469144 C432.204067,185.850631 432.395512,185.996494 433.035063,186.176017 C432.754558,187.893408 432.024544,188.219495 431.272791,188.219495 L429.488079,188.219495 C428.612202,188.219495 428.084853,187.893408 428.084853,186.86115 L428.084853,178.229313 L429.54418,178.319074 C429.645161,178.330295 429.779804,178.352735 429.779804,178.464937 C429.779804,178.554698 429.723703,178.577139 429.47756,178.689341 L429.47756,181.93338 C429.690042,181.776297 430.924965,180.765778 431.610098,179.800842 L432.8331,180.788219 L432.8331,180.788219 Z M422.315568,185.76087 C423.763675,185.368163 423.954418,185.312062 425.514727,184.807153 L425.514727,182.000701 L422.506311,182.000701 L422.506311,180.608696 L425.514727,180.608696 L425.514727,178.218093 L427.029453,178.319074 C427.108696,178.319074 427.243338,178.352735 427.243338,178.453717 C427.243338,178.554698 427.153576,178.588359 426.939691,178.6669 L426.939691,188.365358 L425.514727,188.365358 L425.514727,186.165498 C425.211781,186.276999 423.258065,186.973352 423.089762,187.018233 C423.02244,187.253857 422.989481,187.377279 422.876578,187.377279 C422.809958,187.377279 422.753857,187.298738 422.730715,187.208976 L422.315568,185.76087 L422.315568,185.76087 Z" id="Fill-19" fill="#FFFFFF"></path>
                    <path d="M310.126227,248.278401 C310.182328,248.323282 310.20547,248.368864 310.20547,248.413043 C310.20547,248.469144 310.171809,248.548387 310.059607,248.548387 C310.025947,248.548387 310.002805,248.548387 309.856942,248.514727 C309.654979,248.69425 308.802244,249.502104 308.622721,249.659187 C307.814165,250.366059 306.961431,250.983871 306.770687,251.107293 L306.770687,253.913745 C306.770687,254.396213 307.006311,254.407433 307.376578,254.407433 L308.151473,254.407433 C308.476858,254.407433 308.891304,254.407433 309.015428,252.959327 C309.497896,253.341515 309.68864,253.487377 310.328191,253.666199 C310.048387,255.384292 309.318373,255.709677 308.56662,255.709677 L306.781907,255.709677 C305.906031,255.709677 305.378682,255.384292 305.378682,254.351332 L305.378682,245.718794 L306.838008,245.808555 C306.938289,245.820477 307.073633,245.842917 307.073633,245.955119 C307.073633,246.044881 307.017532,246.067321 306.770687,246.179523 L306.770687,249.423562 C306.983871,249.26648 308.218794,248.256662 308.903226,247.291024 L310.126227,248.278401 L310.126227,248.278401 Z M299.608696,253.251052 C301.057504,252.858345 301.247546,252.802244 302.808555,252.296634 L302.808555,249.490884 L299.80014,249.490884 L299.80014,248.098878 L302.808555,248.098878 L302.808555,245.708275 L304.323282,245.808555 C304.401823,245.808555 304.537167,245.842917 304.537167,245.943899 C304.537167,246.044881 304.447405,246.078541 304.23352,246.157083 L304.23352,255.85554 L302.808555,255.85554 L302.808555,253.65568 C302.504909,253.767181 300.551893,254.463534 300.38359,254.508415 C300.316269,254.744039 300.282609,254.867461 300.170407,254.867461 C300.103086,254.867461 300.046985,254.78892 300.024544,254.699158 L299.608696,253.251052 L299.608696,253.251052 Z" id="Fill-20" fill="#FFFFFF"></path>
                    <path d="M315.016129,246.718093 C314.814165,247.291024 314.724404,247.481767 313.882889,249.232819 C314.668303,250.175316 314.836606,250.90533 314.881487,251.095372 C315.465638,250.725806 315.969846,250.130435 316.20547,249.524544 L314.443198,249.524544 L314.443198,248.390603 L317.081346,248.390603 L317.081346,247.694951 L315.016129,247.694951 L315.016129,246.718093 L315.016129,246.718093 Z M312.591865,252.476858 C312.805049,252.521739 312.939691,252.521739 313.007013,252.521739 C313.231417,252.521739 313.669004,252.498597 313.669004,251.713184 C313.669004,250.893408 313.366059,250.141655 312.591865,249.535764 L312.591865,252.476858 L312.591865,252.476858 Z M312.591865,247.133941 L312.591865,249.064516 C313.007013,248.312763 313.231417,247.807153 313.4446,247.133941 L312.591865,247.133941 L312.591865,247.133941 Z M318.428471,252.364656 L320.696353,252.364656 L320.696353,253.464236 L318.428471,253.464236 L318.428471,254.508415 L321.223001,254.508415 L321.223001,255.652875 L314.050491,255.652875 L314.050491,254.508415 L317.081346,254.508415 L317.081346,253.464236 L315.128331,253.464236 L315.128331,252.364656 L317.081346,252.364656 L317.081346,251.241935 L317.968443,251.275596 C317.934783,251.174614 317.912342,251.051192 317.912342,250.93899 L317.912342,249.524544 L316.767181,249.524544 L317.406732,249.80575 C317.462833,249.827489 317.575035,249.88359 317.575035,249.984572 C317.575035,250.130435 317.406732,250.153576 317.28331,250.153576 C316.778401,251.051192 316.419355,251.48878 315.667602,252.038569 C315.408836,251.702665 315.06101,251.432679 314.915147,251.331697 C314.937588,251.432679 314.960028,251.600982 314.960028,251.870266 C314.960028,253.857644 313.478962,253.823282 312.950912,253.801543 C312.950912,253.553997 312.950912,253.206171 312.591865,252.611501 L312.591865,255.85554 L311.255961,255.85554 L311.255961,245.966339 L314.52244,245.966339 L315.09467,246.516129 L315.06101,246.58345 L317.081346,246.58345 L317.081346,245.584853 L318.428471,245.618513 C318.518233,245.618513 318.664095,245.629734 318.664095,245.764376 C318.664095,245.854137 318.551893,245.921459 318.428471,245.966339 L318.428471,246.58345 L320.819074,246.58345 L320.819074,247.694951 L318.428471,247.694951 L318.428471,248.390603 L321.223001,248.390603 L321.223001,249.524544 L319.180224,249.524544 L319.180224,250.187237 C319.180224,250.445302 319.293128,250.511921 319.607293,250.511921 C319.955119,250.511921 320.134642,250.445302 320.269285,249.704067 C320.493689,249.895512 320.752454,250.119215 321.346424,250.3331 C321.122721,251.331697 320.864656,251.690743 319.865358,251.690743 L318.697756,251.690743 C318.574334,251.690743 318.484572,251.668303 318.428471,251.657083 L318.428471,252.364656 L318.428471,252.364656 Z" id="Fill-21" fill="#FFFFFF"></path>
                    <path d="M326.578541,250.803647 C326.578541,251.432679 326.072931,251.938289 325.4446,251.938289 C324.816269,251.938289 324.31136,251.432679 324.31136,250.803647 C324.31136,250.175316 324.827489,249.670407 325.4446,249.670407 C326.062412,249.670407 326.578541,250.175316 326.578541,250.803647" id="Fill-22" fill="#FFFFFF"></path>
                    <path d="M335.274194,251.129734 L337.552595,251.129734 L337.552595,249.80575 L335.274194,249.80575 L335.274194,251.129734 Z M335.274194,248.592567 L337.552595,248.592567 L337.552595,247.301543 L335.274194,247.301543 L335.274194,248.592567 Z M331.524544,251.129734 L333.781206,251.129734 L333.781206,249.80575 L331.524544,249.80575 L331.524544,251.129734 Z M331.524544,248.592567 L333.781206,248.592567 L333.781206,247.301543 L331.524544,247.301543 L331.524544,248.592567 Z M335.274194,255.956522 L333.781206,255.956522 L333.781206,252.398317 L331.524544,252.398317 L331.524544,253.060309 L330.053997,253.060309 L330.053997,246.033661 L339.045582,246.033661 L339.045582,252.992987 L337.552595,252.992987 L337.552595,252.398317 L335.274194,252.398317 L335.274194,255.956522 L335.274194,255.956522 Z" id="Fill-23" fill="#FFFFFF"></path>
                    <path d="M345.720196,254.227209 L348.896914,254.227209 L348.896914,253.273492 L345.720196,253.273492 L345.720196,254.227209 Z M344.687237,251.634642 L349.929874,251.634642 L349.929874,250.601683 L344.687237,250.601683 L344.687237,251.634642 Z M344.687237,250.119215 L349.929874,250.119215 L349.929874,249.064516 L344.687237,249.064516 L344.687237,250.119215 Z M344.687237,247.021739 L349.929874,247.021739 L349.929874,245.97756 L344.687237,245.97756 L344.687237,247.021739 Z M345.720196,255.36115 L345.720196,255.87798 L344.29453,255.87798 L344.29453,252.106592 L350.345021,252.106592 L350.345021,255.87798 L348.896914,255.87798 L348.896914,255.36115 L345.720196,255.36115 L345.720196,255.36115 Z M343.834502,248.582048 L350.805049,248.582048 L350.805049,247.515428 L343.834502,247.515428 L343.834502,248.582048 Z M343.217391,255.87798 L341.847826,255.87798 L341.847826,250.063815 C341.387097,250.680926 341.174614,250.860449 341.039271,250.972651 C340.882889,250.737027 340.500701,250.243338 340.085554,249.973352 C340.657784,249.490884 341.174614,248.806452 341.690743,247.997896 C342.274194,247.099579 342.488079,246.482468 342.813464,245.596073 L344.081346,246.056101 C344.193548,246.100982 344.249649,246.157083 344.249649,246.235624 C344.249649,246.336606 344.115007,246.381487 343.924965,246.403927 C343.677419,247.065919 343.441795,247.571529 343.082048,248.18864 C343.373773,248.312763 343.453015,248.356942 343.453015,248.458626 C343.453015,248.548387 343.295933,248.615007 343.217391,248.648668 L343.217391,255.87798 L343.217391,255.87798 Z" id="Fill-24" fill="#FFFFFF"></path>
                    <path d="M361.592567,249.423562 C361.704769,249.457223 361.748948,249.490884 361.748948,249.535764 C361.748948,249.704067 361.637447,249.749649 361.446704,249.760168 C361.176718,250.579243 360.772791,251.500701 360.492987,252.016129 C360.626928,252.274194 360.70547,252.420757 360.840813,252.420757 C360.930575,252.420757 360.986676,252.330295 361.053296,252.173913 C361.121318,252.02805 361.165498,251.814165 361.255259,251.410238 C361.379383,251.52244 361.615007,251.736325 362.108696,251.960729 C362.052595,252.420757 361.861851,254.003506 361.042777,254.003506 C360.828892,254.003506 360.481066,253.981066 359.807854,253.093969 C359.258065,253.857644 359.04418,254.047686 358.898317,254.183029 C358.550491,253.879383 358.337307,253.767181 357.775596,253.520337 C358.370968,253.037868 358.808555,252.633941 359.190042,252.050491 C358.920757,251.421459 358.595372,250.299439 358.50561,248.816971 L358.01122,248.816971 L358.01122,251.758766 C358.404628,251.556101 358.51683,251.48878 358.696353,251.387798 C358.708275,251.623422 358.730014,251.960729 358.854137,252.476858 C358.236325,252.802244 357.069425,253.441795 356.474053,253.767181 C356.474053,253.901823 356.462132,254.037167 356.350631,254.037167 C356.27209,254.037167 356.226508,253.958626 356.182328,253.857644 L355.755961,252.813464 C355.924264,252.734222 356.653576,252.398317 356.799439,252.330295 L356.799439,247.70547 L358.449509,247.70547 C358.404628,246.403927 358.404628,246.258065 358.404628,245.674614 L359.762272,245.764376 C359.897616,245.775596 359.953717,245.808555 359.953717,245.887798 C359.953717,246.033661 359.729313,246.100982 359.628331,246.123422 C359.628331,246.516129 359.639551,246.920056 359.639551,247.70547 L360.694951,247.70547 C360.514727,247.369565 360.458626,247.279804 359.863955,246.482468 L360.873773,245.943899 C360.997195,246.089762 361.525245,246.695652 361.76087,247.190042 C361.368163,247.425666 361.323282,247.448107 360.930575,247.70547 L361.828191,247.70547 L361.828191,248.816971 L359.684432,248.816971 C359.729313,249.400421 359.819074,250.074334 359.931276,250.579243 C360.267882,249.726508 360.357644,249.26648 360.413745,249.030856 L361.592567,249.423562 L361.592567,249.423562 Z M357.731417,255.720196 C356.889201,255.720196 355.687938,255.540673 354.880084,255.226508 C353.757363,254.78892 353.286115,254.183029 353.106592,253.958626 C352.99439,254.452314 352.904628,254.845021 352.578541,255.664095 C352.028752,255.450912 351.815568,255.36115 351.321879,255.248948 C352.074334,253.531557 352.264376,251.825386 352.298036,250.703366 L353.431978,250.860449 C353.5554,250.882889 353.656381,250.893408 353.656381,250.983871 C353.656381,251.084853 353.5554,251.118513 353.421459,251.163394 L353.330996,252.263675 C353.5554,252.712482 353.746143,252.959327 353.847125,253.093969 L353.847125,250.153576 L351.770687,250.153576 L351.770687,249.030856 L353.769285,249.030856 L353.769285,248.087658 L352.096073,248.087658 L352.096073,247.032959 L353.769285,247.032959 L353.769285,245.674614 L355.059607,245.741935 C355.138149,245.741935 355.262272,245.753156 355.262272,245.864656 C355.262272,245.966339 355.183029,246.01122 355.048387,246.100982 L355.048387,247.032959 L356.417952,247.032959 L356.417952,248.087658 L355.048387,248.087658 L355.048387,249.030856 L356.552595,249.030856 L356.552595,250.153576 L355.082048,250.153576 L355.082048,251.039972 L356.361851,251.039972 L356.361851,252.218794 L355.082048,252.218794 L355.082048,254.014727 C356.159888,254.463534 357.023843,254.497195 358.258766,254.497195 C358.370968,254.497195 360.335203,254.497195 362.052595,254.328892 C361.748948,254.856241 361.659888,255.114306 361.558906,255.720196 L357.731417,255.720196 L357.731417,255.720196 Z" id="Fill-25" fill="#FFFFFF"></path>
                    <path d="M335.672511,304.568724 L337.603086,304.568724 L337.603086,303.951613 L335.672511,303.951613 L335.672511,304.568724 Z M335.672511,303.086957 L337.603086,303.086957 L337.603086,302.481066 L335.672511,302.481066 L335.672511,303.086957 Z M332.462132,304.568724 L334.347826,304.568724 L334.347826,303.951613 L332.462132,303.951613 L332.462132,304.568724 Z M332.462132,303.086957 L334.347826,303.086957 L334.347826,302.481066 L332.462132,302.481066 L332.462132,303.086957 Z M335.672511,308.946704 L334.347826,308.946704 L334.347826,306.241234 C334.100982,306.52244 332.697756,308.082048 330.891304,308.901122 C330.520337,308.429874 330.318373,308.217391 329.723703,307.891304 C331.732819,307.251753 332.978261,306.072931 333.415849,305.635344 L331.081346,305.635344 L331.081346,301.470547 L334.347826,301.470547 L334.347826,300.887097 L329.914446,300.887097 L329.914446,299.753156 L334.347826,299.753156 L334.347826,298.697756 L335.784712,298.776999 C335.852034,298.776999 336.031557,298.799439 336.031557,298.922861 C336.031557,299.068724 335.852034,299.113604 335.672511,299.147265 L335.672511,299.753156 L340.117812,299.753156 L340.117812,300.887097 L335.672511,300.887097 L335.672511,301.470547 L338.983871,301.470547 L338.983871,305.635344 L336.682328,305.635344 C337.793829,306.600281 338.972651,307.274194 340.251753,307.756662 C339.47756,308.419355 339.365358,308.598177 339.241935,308.845722 C338.692146,308.598177 337.265778,307.868864 335.672511,306.230715 L335.672511,308.946704 L335.672511,308.946704 Z" id="Fill-26" fill="#FFFFFF"></path>
                    <path d="M349.448107,302.582048 L348.382188,302.582048 C348.370968,303.165498 348.370968,303.232819 348.359748,303.692847 L349.448107,303.692847 L349.448107,302.582048 L349.448107,302.582048 Z M348.280505,304.793829 C348.202665,305.702665 348.191445,305.803647 348.169004,305.99439 L349.369565,305.99439 C349.392006,305.657784 349.425666,305.185835 349.437588,304.793829 L348.280505,304.793829 L348.280505,304.793829 Z M346.069425,302.582048 L346.069425,303.199158 C346.069425,303.26648 346.047686,303.614306 346.047686,303.692847 L347.124825,303.692847 C347.158485,303.300842 347.169705,302.997195 347.169705,302.582048 L346.069425,302.582048 L346.069425,302.582048 Z M345.991585,304.793829 C345.946003,305.265077 345.923562,305.523142 345.856241,305.99439 L346.900421,305.99439 C346.967742,305.545582 347.001403,305.275596 347.046283,304.793829 L345.991585,304.793829 L345.991585,304.793829 Z M350.70547,304.793829 C350.672511,305.623422 350.672511,305.713885 350.660589,305.99439 L351.356241,305.99439 L351.356241,307.128331 L350.537167,307.128331 C350.436185,307.745442 350.245442,308.923562 348.236325,309.058906 C348.124123,308.598177 347.967041,308.317672 347.618513,307.902525 C348.988079,307.947405 349.133941,307.65568 349.246143,307.128331 L345.643759,307.128331 C345.564516,307.464236 345.497896,307.65568 345.441795,307.835203 C345.059607,307.711781 344.890603,307.689341 344.128331,307.565919 C344.498597,306.532959 344.64446,305.657784 344.744741,304.793829 L343.859046,304.793829 L343.859046,303.692847 L344.823983,303.692847 C344.835203,303.368163 344.835203,303.210379 344.835203,302.929874 L344.835203,301.403927 C344.734222,301.515428 344.408836,301.875175 344.340813,301.953717 C343.925666,301.65007 343.723703,301.537868 343.195652,301.313464 C344.16129,300.359046 344.767882,299.371669 345.126928,298.485273 L346.293829,298.85554 C346.373072,298.87798 346.507714,298.945302 346.507714,299.035063 C346.507714,299.147265 346.350631,299.180926 346.215989,299.214586 C346.171108,299.304348 346.091865,299.42777 346.069425,299.472651 L351.390603,299.472651 L351.390603,300.606592 L345.429874,300.606592 C345.250351,300.887097 345.059607,301.133941 344.835203,301.392006 L350.728612,301.392006 L350.728612,303.692847 L351.457924,303.692847 L351.457924,304.793829 L350.70547,304.793829 L350.70547,304.793829 Z M342.870968,300.965638 C342.5,300.550491 341.838008,300.034362 341.298738,299.742637 L341.983871,298.687237 C342.837307,299.259467 342.893408,299.304348 343.600982,299.9446 C343.399018,300.225105 343.061711,300.673913 342.870968,300.965638 L342.870968,300.965638 Z M342.769986,307.711781 C342.691445,307.857644 342.343619,308.497195 342.287518,308.631837 C342.320477,308.71108 342.366059,308.800842 342.366059,308.856942 C342.366059,308.923562 342.309958,309.025245 342.220196,309.025245 C342.174614,309.025245 342.096073,309.002805 342.006311,308.946704 L340.917251,308.250351 C341.220898,307.868864 342.129734,306.476858 342.725105,304.973352 C342.927069,305.152174 343.274895,305.43338 343.723703,305.713885 C343.476858,306.353436 342.98317,307.296634 342.769986,307.711781 L342.769986,307.711781 Z M342.579243,304.186536 C342.410238,304.040673 341.568724,303.278401 340.816971,302.862553 L341.568724,301.885694 C342.287518,302.335203 342.769986,302.69425 343.342216,303.199158 C343.04979,303.490884 342.859748,303.726508 342.579243,304.186536 L342.579243,304.186536 Z" id="Fill-27" fill="#FFFFFF"></path>
                    <path d="M265.984572,302.453015 L265.984572,303.744039 L264.1669,303.744039 L264.1669,307.930575 L262.830295,307.930575 L262.830295,303.744039 L261.147265,303.744039 C261.091164,305.192146 260.86676,306.673212 260.046985,307.874474 C259.485975,307.470547 259.19425,307.347125 258.856942,307.268583 C259.553296,306.123422 259.80014,305.293128 259.80014,303.373072 L259.80014,299.98317 L260.86676,300.197055 C261.225105,300.197055 262.797335,299.92777 263.267882,299.826788 C264.1669,299.624825 264.570827,299.478962 264.896213,299.35554 L265.80575,300.354137 C265.87237,300.421459 265.88359,300.47756 265.88359,300.51122 C265.88359,300.590463 265.827489,300.623422 265.748948,300.623422 C265.704067,300.623422 265.558205,300.590463 265.502104,300.578541 C263.605189,301.106592 262.168303,301.230014 261.169004,301.263675 L261.169004,302.453015 L265.984572,302.453015 L265.984572,302.453015 Z M256.679523,299.45582 C257.105891,299.703366 257.745442,300.084853 258.812062,301.02805 C258.453015,301.431978 258.13885,301.790323 257.970547,302.12763 C257.443198,301.57784 256.903927,301.09467 255.882188,300.47756 L256.679523,299.45582 L256.679523,299.45582 Z M258.576438,303.665498 L258.576438,306.988079 C258.576438,308.346424 260.058205,308.346424 261.214586,308.346424 C262.50561,308.346424 265.086957,308.290323 266.299439,308.088359 C266.029453,308.750351 265.939691,308.974755 265.827489,309.558906 L261.730715,309.558906 C260.248948,309.558906 258.734222,309.558906 257.936886,308.457924 C257.757363,308.559607 256.791725,309.267181 256.533661,309.479663 C256.533661,309.569425 256.533661,309.704769 256.410238,309.704769 C256.354137,309.704769 256.309257,309.681627 256.241935,309.558906 L255.602384,308.413745 C255.781907,308.301543 256.556101,307.896914 256.701964,307.807854 C256.915147,307.672511 257.07223,307.57223 257.195652,307.481767 L257.195652,304.911641 L255.769986,304.911641 L255.769986,303.665498 L258.576438,303.665498 L258.576438,303.665498 Z" id="Fill-28" fill="#FFFFFF"></path>
                    <path d="M272.922861,302.431276 C273.114306,302.441795 273.596774,302.431276 273.709677,302.419355 C273.787518,302.329593 273.877279,302.217391 274.057504,301.970547 C273.607994,301.588359 273.271388,301.364656 272.720898,301.02805 C272.720898,301.532258 272.744039,302.767181 272.956522,303.957223 L274.517532,303.957223 C274.43899,303.912342 274.135344,303.721599 273.776297,303.519635 L274.259467,303.295231 C273.899719,303.328892 273.518233,303.362553 273.38359,303.362553 C273.36115,303.429173 273.305049,303.553296 273.181627,303.553296 C273.058205,303.553296 273.035764,303.407433 273.024544,303.317672 L272.922861,302.431276 L272.922861,302.431276 Z M270.139551,307.863955 L270.903226,307.863955 L270.903226,307.335905 L270.139551,307.335905 L270.139551,307.863955 Z M270.139551,306.629032 L270.903226,306.629032 L270.903226,306.123422 L270.139551,306.123422 L270.139551,306.629032 Z M268.535063,307.863955 L269.275596,307.863955 L269.275596,307.335905 L268.535063,307.335905 L268.535063,307.863955 Z M268.535063,306.629032 L269.275596,306.629032 L269.275596,306.123422 L268.535063,306.123422 L268.535063,306.629032 Z M276.515428,300.264376 C276.604488,300.309257 276.717391,300.376578 276.717391,300.455119 C276.717391,300.556101 276.61641,300.578541 276.515428,300.578541 C276.458626,300.578541 276.392006,300.567321 276.335905,300.556101 C275.762973,301.308555 275.650771,301.454418 274.899018,302.374474 C275.168303,302.363254 275.51683,302.329593 275.830295,302.295933 C275.718794,301.981767 275.650771,301.824684 275.58345,301.667602 L276.504208,301.342216 C277.099579,302.689341 277.21108,303.193548 277.278401,303.485273 C276.908135,303.553296 276.571529,303.665498 276.256662,303.78892 C276.234222,303.631136 276.212482,303.508415 276.100281,303.137447 C275.920757,303.160589 275.157083,303.227209 275,303.23913 C275.336606,303.429173 275.628331,303.609397 275.864656,303.80014 L275.493689,303.957223 L277.245442,303.957223 L277.245442,305.011921 L273.226508,305.011921 C273.529453,305.98878 273.899719,306.504909 274.034362,306.696353 C274.169705,306.51683 274.651473,305.877279 275.033661,305.023843 L276.178822,305.618513 C276.256662,305.663394 276.358345,305.719495 276.358345,305.809257 C276.358345,305.955119 276.178822,305.97756 275.954418,305.97756 C275.493689,306.762973 275.246844,307.145161 274.842917,307.63885 C275.145863,307.930575 275.493689,308.278401 275.684432,308.278401 C276.010519,308.278401 276.122721,307.784712 276.268583,307.100281 C276.706171,307.470547 277.21108,307.683731 277.379383,307.751052 C277.267181,308.312062 276.930575,309.816971 276.04418,309.816971 C275.426367,309.816971 274.573633,309.187938 273.967742,308.570126 C273.888499,308.649369 273.181627,309.31136 272.26087,309.884292 C271.980365,309.580645 271.610098,309.267181 271.307153,309.075736 L270.903226,309.075736 L270.903226,308.70547 L268.535063,308.70547 L268.535063,309.490884 L267.423562,309.490884 L267.423562,305.315568 L271.901823,305.315568 L271.901823,308.659888 C272.620617,308.166199 273.024544,307.795933 273.192847,307.628331 C272.452314,306.550491 272.204769,305.629734 272.036466,305.011921 L267.053296,305.011921 L267.053296,303.957223 L271.812062,303.957223 C271.68864,303.227209 271.475456,301.936185 271.553997,299.399719 L272.76648,299.467742 C272.86676,299.467742 273.024544,299.478962 273.024544,299.613604 C273.024544,299.725806 272.889902,299.793128 272.76648,299.837307 C272.744039,300.062412 272.720898,300.331697 272.720898,301.004909 L273.293829,300.174614 C273.473352,300.298036 273.574334,300.365358 273.675316,300.432679 C273.832398,300.197055 274.113604,299.793128 274.326087,299.287518 L275.134642,299.657784 C275.190743,299.680926 275.291725,299.747546 275.291725,299.815568 C275.291725,299.93899 275.145863,299.972651 275,299.98317 C274.842917,300.264376 274.685835,300.52244 274.371669,300.948808 C274.528752,301.07223 274.573633,301.117812 274.651473,301.184432 C275.246844,300.387798 275.471248,299.995091 275.59467,299.770687 L276.515428,300.264376 L276.515428,300.264376 Z M270.970547,300.410238 C271.049088,300.4446 271.13885,300.48878 271.13885,300.578541 C271.13885,300.736325 270.858345,300.713184 270.779804,300.701964 C270.173913,301.5554 269.578541,302.228612 269.320477,302.531557 C269.803647,302.509116 269.98317,302.497896 270.173913,302.475456 C270.095372,302.228612 270.061711,302.12763 269.97195,301.903226 L270.880785,301.667602 C271.16129,302.431276 271.329593,302.981066 271.475456,303.687938 C271.261571,303.721599 271.037868,303.755259 270.521739,303.901122 C270.510519,303.744039 270.487377,303.586957 270.431978,303.362553 C268.232118,303.575035 267.984572,303.598177 267.479663,303.620617 C267.434783,303.755259 267.367461,303.878682 267.2777,303.878682 C267.143058,303.878682 267.109397,303.755259 267.098177,303.643058 L266.941094,302.599579 C267.120617,302.599579 267.88359,302.587658 268.040673,302.577139 C268.288219,302.307153 268.388499,302.194951 268.490182,302.071529 C268.288219,301.869565 267.704769,301.352735 267.007714,300.859046 L267.648668,300.006311 C267.827489,300.129734 267.928471,300.208275 268.119215,300.342917 C268.175316,300.264376 268.512623,299.803647 268.781907,299.265077 L269.635344,299.669705 C269.747546,299.725806 269.837307,299.770687 269.837307,299.860449 C269.837307,299.98317 269.668303,299.972651 269.533661,299.972651 C269.163394,300.578541 269.118513,300.646564 268.871669,300.982468 C268.961431,301.06101 269.084853,301.184432 269.152174,301.263675 C269.747546,300.48878 269.915849,300.197055 270.061711,299.972651 L270.970547,300.410238 L270.970547,300.410238 Z" id="Fill-29" fill="#FFFFFF"></path>
                    <path d="M178.985273,275.689341 L181.600281,275.689341 L181.600281,273.579243 L178.985273,273.579243 L178.985273,275.689341 Z M174.93338,275.689341 L177.548387,275.689341 L177.548387,273.579243 L174.93338,273.579243 L174.93338,275.689341 Z M178.985273,280.415147 L177.548387,280.415147 L177.548387,277.025245 L174.93338,277.025245 L174.93338,277.552595 L173.484572,277.552595 L173.484572,272.30014 L177.548387,272.30014 L177.548387,270.110799 L179.085554,270.211781 C179.175316,270.223001 179.276999,270.256662 179.276999,270.357644 C179.276999,270.458626 179.142356,270.514727 178.985273,270.537167 L178.985273,272.30014 L183.037167,272.30014 L183.037167,277.541374 L181.600281,277.541374 L181.600281,277.025245 L178.985273,277.025245 L178.985273,280.415147 L178.985273,280.415147 Z" id="Fill-30" fill="#FFFFFF"></path>
                    <path d="M190.885694,275.442496 L189.964937,275.442496 L189.964937,276.879383 L190.941795,276.879383 C190.896213,276.800842 190.593969,276.329593 190.223001,275.913745 L190.885694,275.442496 L190.885694,275.442496 Z M189.964937,274.399018 L191.895512,274.399018 L191.895512,275.442496 L191.323282,275.442496 C191.659888,275.823983 191.895512,276.15007 192.097475,276.486676 C192.007714,276.542777 191.715989,276.744741 191.525245,276.879383 L192.457223,276.879383 L192.457223,277.968443 L186.316971,277.968443 L186.316971,276.879383 L188.617812,276.879383 L188.617812,275.442496 L186.821879,275.442496 L186.821879,274.399018 L188.617812,274.399018 L188.617812,273.377279 L186.440393,273.377279 L186.440393,272.30014 L192.3331,272.30014 L192.3331,273.377279 L189.964937,273.377279 L189.964937,274.399018 L189.964937,274.399018 Z M185.935484,278.607994 L192.782609,278.607994 L192.782609,271.648668 L185.935484,271.648668 L185.935484,278.607994 Z M185.935484,279.842917 L185.935484,280.370266 L184.565919,280.370266 L184.565919,270.481066 L194.140252,270.481066 L194.140252,280.359046 L192.782609,280.359046 L192.782609,279.842917 L185.935484,279.842917 L185.935484,279.842917 Z" id="Fill-31" fill="#FFFFFF"></path>
                    <path d="M190.77209,328.481767 C190.77209,328.874474 190.80575,328.919355 191.253857,328.919355 C191.647265,328.919355 191.838008,328.919355 191.983871,327.707574 C192.208976,327.897616 192.432679,328.0554 192.960729,328.201262 L192.960729,325.159187 L190.77209,325.159187 L190.77209,328.481767 L190.77209,328.481767 Z M187.292426,325.159187 L185.978962,325.159187 L185.978962,330.030856 C187.292426,328.874474 187.292426,327.538569 187.292426,326.326788 L187.292426,325.159187 L187.292426,325.159187 Z M192.960729,331.815568 L192.960729,329.267181 C192.758766,329.862553 192.523142,330.232819 191.568022,330.232819 L190.861851,330.232819 C189.558906,330.232819 189.469144,329.626227 189.469144,328.852034 L189.469144,325.159187 L188.795933,325.159187 C188.819074,325.181627 188.840813,325.204067 188.840813,325.260168 C188.840813,325.38359 188.706171,325.428471 188.593969,325.462132 L188.593969,326.191445 C188.593969,327.897616 188.481767,329.548387 186.899018,331.029453 C186.596073,330.737728 186.370968,330.558205 185.978962,330.389902 L185.978962,331.815568 L192.960729,331.815568 L192.960729,331.815568 Z M185.978962,333.150771 L185.978962,333.712482 L184.642356,333.712482 L184.642356,323.845722 L194.352034,323.845722 L194.352034,333.633941 L192.960729,333.633941 L192.960729,333.150771 L185.978962,333.150771 L185.978962,333.150771 Z" id="Fill-32" fill="#FFFFFF"></path>
                    <path d="M202.232819,328.761571 L201.312763,328.761571 L201.312763,330.198457 L202.289621,330.198457 C202.244039,330.120617 201.941094,329.648668 201.570827,329.23352 L202.232819,328.761571 L202.232819,328.761571 Z M201.312763,327.718093 L203.243338,327.718093 L203.243338,328.761571 L202.670407,328.761571 C203.007714,329.143759 203.243338,329.469144 203.445302,329.806452 C203.35554,329.862553 203.063815,330.064516 202.873072,330.198457 L203.805049,330.198457 L203.805049,331.287518 L197.664797,331.287518 L197.664797,330.198457 L199.965638,330.198457 L199.965638,328.761571 L198.169705,328.761571 L198.169705,327.718093 L199.965638,327.718093 L199.965638,326.697055 L197.788219,326.697055 L197.788219,325.619215 L203.680926,325.619215 L203.680926,326.697055 L201.312763,326.697055 L201.312763,327.718093 L201.312763,327.718093 Z M197.28331,331.92777 L204.130435,331.92777 L204.130435,324.967742 L197.28331,324.967742 L197.28331,331.92777 Z M197.28331,333.162693 L197.28331,333.690042 L195.913745,333.690042 L195.913745,323.800842 L205.488079,323.800842 L205.488079,333.678121 L204.130435,333.678121 L204.130435,333.162693 L197.28331,333.162693 L197.28331,333.162693 Z" id="Fill-33" fill="#FFFFFF"></path>
                    <path d="M105.533661,309.473352 C105.691445,309.483871 105.791725,309.495091 105.791725,309.596073 C105.791725,309.697055 105.713184,309.741935 105.533661,309.831697 L105.533661,311.908135 L108.687938,311.874474 C108.643058,312.290323 108.542076,314.142356 108.508415,314.523843 C108.340112,316.645161 108.250351,317.521038 108.250351,317.767882 C108.250351,318.171809 108.396213,318.171809 108.7777,318.171809 C109.159187,318.171809 109.38359,318.171809 109.552595,316.5554 C109.900421,316.971248 110.382889,317.228612 110.887798,317.330295 C110.607994,319.181627 110.169705,319.474053 109.058906,319.474053 L108.284011,319.474053 C107.441795,319.474053 106.813464,319.38359 106.813464,318.328892 C106.813464,318.126928 106.824684,318.014727 106.835905,317.823983 L107.194951,313.232819 L105.5,313.255259 C105.410238,314.299439 105.107293,316.162693 103.906031,317.711781 C103.154278,318.677419 102.335203,319.28331 101.190042,319.754558 C100.740533,319.047686 100.392707,318.845722 100.078541,318.665498 C101.223703,318.19425 103.692847,317.173212 104.086255,313.2777 L100.706872,313.323282 L100.673913,311.964236 L104.130435,311.930575 C104.130435,311.504208 104.130435,309.787518 104.107994,309.382889 L105.533661,309.473352" id="Fill-34" fill="#FFFFFF"></path>
                    <path d="M113.363955,309.43899 L114.73352,309.517532 C114.812062,309.517532 114.992286,309.529453 114.992286,309.663394 C114.992286,309.798036 114.823282,309.854839 114.73352,309.877279 L114.73352,312.795231 L115.80014,312.368163 C116.114306,312.985975 116.260168,313.367461 116.507013,314.075035 L116.507013,309.685835 L117.876578,309.765077 C117.955119,309.765077 118.112202,309.775596 118.112202,309.91094 C118.112202,310.000701 118.01122,310.056802 117.876578,310.112903 L117.876578,312.952314 L119.054698,312.457924 C119.223703,312.772791 119.403226,313.121318 119.773492,314.198457 L119.773492,309.42777 L121.176718,309.506311 C121.276999,309.517532 121.434783,309.517532 121.434783,309.663394 C121.434783,309.753156 121.345021,309.809257 121.164797,309.887798 L121.164797,319.676017 L119.773492,319.676017 L119.773492,315.185835 C119.515428,315.264376 119.358345,315.320477 118.786115,315.545582 C118.54979,314.389201 118,313.244039 117.876578,313.019635 L117.876578,319.171108 L116.507013,319.171108 L116.507013,315.253857 C116.136045,315.366059 116.024544,315.410238 115.518934,315.612202 C115.417952,315.220196 115.19425,314.276999 114.73352,313.187938 L114.73352,313.525245 C114.73352,315.208275 114.666199,316.084151 114.307153,317.13885 C113.992987,318.070827 113.375175,319.193548 112.668303,319.799439 C112.342216,319.451613 111.98317,319.171108 111.556802,318.935484 C113.184432,317.352735 113.363955,315.847826 113.363955,314.176017 L113.363955,312.69425 C113.330295,312.70547 113.307854,312.70547 113.274194,312.70547 C113.218093,313.21108 113.105891,314.321879 112.600281,315.680224 C112.129032,315.466339 111.500701,315.331697 111.377279,315.309958 C111.556802,314.92777 111.960729,313.850631 112.02805,312.15568 L113.207574,312.335203 C113.274194,312.346424 113.307854,312.346424 113.363955,312.357644 L113.363955,309.43899" id="Fill-35" fill="#FFFFFF"></path>
                    <path d="M415.473352,280.913043 L420.502104,280.913043 L420.502104,280.239832 L415.473352,280.239832 L415.473352,280.913043 Z M415.473352,279.150771 L420.502104,279.150771 L420.502104,278.52244 L415.473352,278.52244 L415.473352,279.150771 Z M415.473352,277.43338 L420.502104,277.43338 L420.502104,276.782609 L415.473352,276.782609 L415.473352,277.43338 Z M418.897616,273.493689 C418.987377,273.280505 419.279102,272.618513 419.424965,272.090463 L420.917952,272.438289 C420.962132,272.45021 421.063815,272.48317 421.063815,272.572931 C421.063815,272.674614 421.018233,272.685835 420.738429,272.764376 C420.682328,272.876578 420.457223,273.392707 420.401122,273.493689 L423.039271,273.493689 L423.039271,274.784712 L418.65007,274.784712 C418.504208,275.132539 418.448107,275.267181 418.324684,275.548387 L421.90533,275.548387 L421.90533,282.507013 L420.502104,282.507013 L420.502104,282.046985 L415.473352,282.046985 L415.473352,282.507013 L414.036466,282.507013 L414.036466,275.548387 L416.854137,275.548387 C417.01122,275.2223 417.112202,274.953015 417.179523,274.784712 L412.813464,274.784712 L412.813464,273.493689 L415.518233,273.493689 C415.237728,273.067321 415.114306,272.876578 414.822581,272.539972 L416.057504,272.102384 C416.393408,272.427069 416.809257,273.033661 416.98878,273.325386 C416.798036,273.381487 416.730715,273.415147 416.495091,273.493689 L418.897616,273.493689 L418.897616,273.493689 Z" id="Fill-36" fill="#FFFFFF"></path>
                    <path d="M431.036466,273.875175 L431.036466,279.992987 C431.384993,280.060309 431.586957,280.082048 431.822581,280.082048 C432.485273,280.082048 432.776999,279.892006 432.776999,279.274194 C432.776999,278.118513 432.125526,277.029453 431.22791,276.26648 C431.76648,275.446704 432.204067,274.459327 432.406031,273.875175 L431.036466,273.875175 L431.036466,273.875175 Z M426.939691,274.63885 L426.939691,275.514025 L427.141655,275.514025 C427.242637,275.379383 427.422861,275.154979 427.737027,274.63885 L426.939691,274.63885 L426.939691,274.63885 Z M426.221599,280.868864 L427.770687,280.868864 L427.770687,280.13885 L426.221599,280.13885 L426.221599,280.868864 Z M426.221599,279.196353 L427.770687,279.196353 L427.770687,278.51122 L426.221599,278.51122 L426.221599,279.196353 Z M429.667602,273.54979 C429.307854,274.436886 428.893408,275.098878 428.612202,275.514025 L429.375877,275.514025 L429.375877,276.681627 L427.680926,276.681627 C427.34432,277.051893 427.007013,277.343619 426.906732,277.43338 L429.016129,277.43338 L429.016129,282.37237 L427.770687,282.37237 L427.770687,281.867461 L426.221599,281.867461 L426.221599,282.495792 L424.885694,282.495792 L424.885694,278.892707 C424.448107,279.128331 424.358345,279.161992 424.145161,279.251753 C423.887097,278.701964 423.741234,278.51122 423.337307,278.219495 C424.313464,277.826788 425.166199,277.389201 426.007714,276.681627 L423.762973,276.681627 L423.762973,275.514025 L425.671809,275.514025 L425.671809,274.63885 L424.324684,274.63885 L424.324684,273.460028 L425.671809,273.460028 L425.671809,272.314867 L427.007013,272.370968 C427.085554,272.370968 427.198457,272.394109 427.198457,272.48317 C427.198457,272.596073 427.085554,272.640252 426.939691,272.708275 L426.939691,273.460028 L427.860449,273.460028 L427.860449,274.413745 C427.995091,274.167602 428.230715,273.740533 428.568022,272.741935 L429.734923,273.156381 L429.734923,272.662693 L433.584853,272.662693 L434.180224,273.235624 C434.034362,273.651473 433.147265,275.558906 432.753857,276.142356 C433.888499,277.511921 434.146564,278.399018 434.146564,279.251753 C434.146564,279.790323 434.000701,280.453015 433.719495,280.812062 C433.371669,281.23913 432.787518,281.384993 431.676718,281.474755 C431.609397,281.193548 431.452314,280.610098 431.036466,280.093969 L431.036466,282.474053 L429.734923,282.474053 L429.734923,273.538569 L429.667602,273.54979 L429.667602,273.54979 Z" id="Fill-37" fill="#FFFFFF"></path>
                    <path d="M440.498597,276.356241 C440.454418,276.26648 440.408836,276.154278 440.342216,275.906732 L439.848527,275.906732 C439.724404,276.164797 439.701964,276.221599 439.623422,276.356241 L440.498597,276.356241 L440.498597,276.356241 Z M441.206171,277.579243 C441.15007,277.511921 441.082048,277.42216 440.936185,277.187237 L439.197055,277.187237 C439.129032,277.287518 439.107293,277.309958 438.91655,277.579243 L441.206171,277.579243 L441.206171,277.579243 Z M443.664095,278.48878 C443.305049,278.668303 443.170407,278.746844 442.867461,279.161992 C442.631136,279.016129 442.26087,278.780505 441.621318,278.095372 L441.621318,279.62202 L440.565919,279.62202 L440.565919,279.442496 L439.219495,279.442496 C439.219495,279.925666 439.219495,279.992987 439.600982,279.992987 L441.138149,279.992987 C441.789621,279.992987 441.856942,279.700561 441.957924,279.04979 C442.23913,279.262973 442.474755,279.408836 442.889902,279.521739 C442.654278,280.789621 442.103787,280.789621 441.509116,280.789621 L438.927069,280.789621 C438.208976,280.789621 438.097475,280.520337 438.097475,280.082048 L438.097475,278.780505 L440.565919,278.780505 L440.565919,278.376578 L438.309958,278.376578 L438.309958,278.342917 C437.962132,278.736325 437.760168,278.971248 437.322581,279.286115 C437.098177,278.99439 436.962833,278.870266 436.469144,278.623422 L436.469144,281.103787 L443.664095,281.103787 L443.664095,278.48878 L443.664095,278.48878 Z M443.34993,276.356241 L443.34993,277.187237 L442.316971,277.187237 C442.654278,277.579243 443.170407,278.039271 443.664095,278.298036 L443.664095,273.751753 L436.469144,273.751753 L436.469144,278.47756 C437.187938,277.972651 437.569425,277.557504 437.84993,277.187237 L436.784011,277.187237 L436.784011,276.356241 L438.411641,276.356241 C438.523142,276.154278 438.579243,276.030154 438.635344,275.906732 L437.310659,275.906732 L437.310659,275.053997 L437.939691,275.053997 C437.737728,274.784712 437.647966,274.649369 437.378682,274.357644 L438.208976,273.819074 C438.545582,274.111501 438.826788,274.537167 438.972651,274.795231 C438.90533,274.840813 438.624825,275.020337 438.568022,275.053997 L439.062412,275.053997 C439.163394,274.773492 439.309257,274.335203 439.376578,273.853436 L440.54418,274.13324 C440.667602,274.167602 440.734222,274.189341 440.734222,274.257363 C440.734222,274.391304 440.54418,274.425666 440.386396,274.459327 C440.363955,274.571529 440.308555,274.795231 440.240533,275.053997 L441.374474,275.053997 L440.823983,274.818373 C441.049088,274.503506 441.206171,274.234923 441.374474,273.886396 L442.452314,274.279102 C442.497195,274.291024 442.553296,274.323983 442.553296,274.391304 C442.553296,274.515428 442.418654,274.526648 442.249649,274.537167 C442.171108,274.66129 442.115007,274.773492 441.924965,275.053997 L442.80014,275.053997 L442.80014,275.906732 L441.441795,275.906732 C441.553997,276.131837 441.621318,276.254558 441.69986,276.356241 L443.34993,276.356241 L443.34993,276.356241 Z M436.469144,282.192847 L436.469144,282.518233 L435.245442,282.518233 L435.245442,272.596073 L444.876578,272.596073 L444.876578,282.518233 L443.664095,282.518233 L443.664095,282.192847 L436.469144,282.192847 L436.469144,282.192847 Z" id="Fill-38" fill="#FFFFFF"></path>
                </g>
            </g>
        </g>
    </g>
</svg>