<?xml version="1.0" encoding="UTF-8"?>
<svg width="20px" height="20px" viewBox="0 0 20 20" version="1.1" xmlns="http://www.w3.org/2000/svg" xmlns:xlink="http://www.w3.org/1999/xlink">
    <!-- Generator: sketchtool 40.3 (33839) - http://www.bohemiancoding.com/sketch -->
    <title>381AD18F-816E-44B6-9FF5-7894FDD76CF5</title>
    <desc>Created with sketchtool.</desc>
    <defs></defs>
    <g id="Symbols" stroke="none" stroke-width="1" fill="none" fill-rule="evenodd">
        <g id="Search" fill="#898989">
            <path d="M8.5345,3.6325 C5.4985,3.6325 3.0275,5.8755 3.0275,8.6325 C3.0275,11.3895 5.4985,13.6325 8.5345,13.6325 C11.5705,13.6325 14.0405,11.3895 14.0405,8.6325 C14.0405,5.8755 11.5705,3.6325 8.5345,3.6325 L8.5345,3.6325 Z M17.6165,18.3675 L13.0905,14.1925 C11.8255,15.0955 10.2465,15.6325 8.5345,15.6325 C4.3945,15.6325 1.0275,12.4915 1.0275,8.6325 C1.0275,4.7735 4.3945,1.6325 8.5345,1.6325 C12.6735,1.6325 16.0405,4.7735 16.0405,8.6325 C16.0405,10.1995 15.4855,11.6485 14.5485,12.8165 L18.9725,16.8975 L17.6165,18.3675 Z" id="icon"></path>
        </g>
    </g>
</svg>