<svg width="32" height="32" viewBox="0 0 32 32" xmlns="http://www.w3.org/2000/svg"><title>06257550-7612-4C47-A5F0-8C3D8FED0AC2</title><g fill="none" fill-rule="evenodd"><path d="M16 32c8.837 0 16-7.163 16-16 0-8.836-7.163-16-16-16S0 7.164 0 16c0 8.837 7.163 16 16 16" fill="#78CCF0"/><path d="M24.039 11.814a6.56 6.56 0 0 1-1.89.517 3.29 3.29 0 0 0 1.446-1.819 6.55 6.55 0 0 1-2.09.797 3.29 3.29 0 0 0-5.605 3 9.339 9.339 0 0 1-6.78-3.436 3.289 3.289 0 0 0 1.018 4.392 3.289 3.289 0 0 1-1.49-.41v.04a3.29 3.29 0 0 0 2.64 3.226 3.219 3.219 0 0 1-.868.115c-.212 0-.42-.02-.619-.058a3.289 3.289 0 0 0 3.073 2.283 6.6 6.6 0 0 1-4.085 1.41 6.75 6.75 0 0 1-.785-.046 9.325 9.325 0 0 0 5.043 1.478c6.051 0 9.36-5.013 9.36-9.36a9.05 9.05 0 0 0-.01-.426 6.678 6.678 0 0 0 1.642-1.703" fill="#FEFEFE"/></g></svg>